<?xml version="1.0" encoding="UTF-8" standalone="no"?>
<svg width="48px" height="288px" viewBox="0 0 48 288" version="1.1" xmlns="http://www.w3.org/2000/svg" xmlns:xlink="http://www.w3.org/1999/xlink" xmlns:sketch="http://www.bohemiancoding.com/sketch/ns">
    <!-- Generator: Sketch 3.0.4 (8053) - http://www.bohemiancoding.com/sketch -->
    <title>Artboard 1</title>
    <desc>Created with Sketch.</desc>
    <defs></defs>
    <g id="Page-1" stroke="none" stroke-width="1" fill="none" fill-rule="evenodd" sketch:type="MSPage">
        <g id="Artboard-1" sketch:type="MSArtboardGroup">
            <g id="collection-sprite" sketch:type="MSLayerGroup" transform="translate(0.000000, 5.000000)">
                <g id="Group" sketch:type="MSShapeGroup">
                    <g transform="translate(0.000000, 240.000000)" fill="#FFFFFF">
                        <path d="M0,8.002 L0,35.999 C0,37.105 0.895,38.001 2.001,38.001 L45.998,38.001 C47.103,38.001 47.999,37.112 47.999,35.999 L47.999,8.002 C47.999,6.896 47.104,6 45.998,6 L2.001,6 C0.896,6 -2.22044605e-15,6.889 -2.22044605e-15,8.002 L0,8.002 Z M2,7 L46,7 C46.5,7 47,7.444 47,8 L47,36 C47,36.486 46.465,37 46,37 L2,37 C1.435,37 1,36.451 1,36 L1,8 C1,7.427 1.468,7 2,7 L2,7 Z" id="collection"></path>
                        <path d="M26.5,21.409 L26.5,20.5 C26.5,19.671 25.829,19 25,19 L19.5,19 C18.671,19 18,19.671 18,20.5 L18,24.5 C18,25.329 18.671,26 19.5,26 L25,26 C25.829,26 26.5,25.329 26.5,24.5 L26.5,23.591 L30,25.5 L30,19.5 L26.5,21.409 L26.5,21.409 Z" id="Shape-2"></path>
                        <path d="M46,5 C46.25,5 46.5,4.746 46.5,4.497 C46.5,4.248 46.25,4 46,4 L2,4 C1.75,4 1.5,4.25 1.5,4.497 C1.5,4.744 1.75,5 2,5 L46,5 L46,5 Z" id="Path" opacity="0.8"></path>
                        <path d="M45,3 C45.25,3 45.5,2.746 45.5,2.497 C45.5,2.248 45.25,2 45,2 L3,2 C2.75,2 2.5,2.25 2.5,2.497 C2.5,2.744 2.75,3 3,3 L45,3 L45,3 Z" id="Path-2" opacity="0.6"></path>
                        <path d="M44,1 C44.25,1 44.5,0.746 44.5,0.497 C44.5,0.248 44.25,0 44,0 L4,0 C3.75,0 3.5,0.25 3.5,0.497 C3.5,0.744 3.75,1 4,1 L44,1 L44,1 Z" id="Path-3" opacity="0.4"></path>
                    </g>
                    <g transform="translate(0.000000, 192.000000)" fill="#51B364">
                        <path d="M0,8.002 L0,35.999 C0,37.105 0.895,38.001 2.001,38.001 L45.998,38.001 C47.103,38.001 47.999,37.112 47.999,35.999 L47.999,8.002 C47.999,6.896 47.104,6 45.998,6 L2.001,6 C0.896,6 -2.22044605e-15,6.889 -2.22044605e-15,8.002 L0,8.002 Z M2,7 L46,7 C46.5,7 47,7.444 47,8 L47,36 C47,36.486 46.465,37 46,37 L2,37 C1.435,37 1,36.451 1,36 L1,8 C1,7.427 1.468,7 2,7 L2,7 Z" id="collection"></path>
                        <path d="M26.5,21.409 L26.5,20.5 C26.5,19.671 25.829,19 25,19 L19.5,19 C18.671,19 18,19.671 18,20.5 L18,24.5 C18,25.329 18.671,26 19.5,26 L25,26 C25.829,26 26.5,25.329 26.5,24.5 L26.5,23.591 L30,25.5 L30,19.5 L26.5,21.409 L26.5,21.409 Z" id="Shape-2"></path>
                        <path d="M46,5 C46.25,5 46.5,4.746 46.5,4.497 C46.5,4.248 46.25,4 46,4 L2,4 C1.75,4 1.5,4.25 1.5,4.497 C1.5,4.744 1.75,5 2,5 L46,5 L46,5 Z" id="Path" opacity="0.8"></path>
                        <path d="M45,3 C45.25,3 45.5,2.746 45.5,2.497 C45.5,2.248 45.25,2 45,2 L3,2 C2.75,2 2.5,2.25 2.5,2.497 C2.5,2.744 2.75,3 3,3 L45,3 L45,3 Z" id="Path-2" opacity="0.6"></path>
                        <path d="M44,1 C44.25,1 44.5,0.746 44.5,0.497 C44.5,0.248 44.25,0 44,0 L4,0 C3.75,0 3.5,0.25 3.5,0.497 C3.5,0.744 3.75,1 4,1 L44,1 L44,1 Z" id="Path-3" opacity="0.4"></path>
                    </g>
                    <g transform="translate(0.000000, 144.000000)" fill="#B7BCBD">
                        <path d="M0,8.002 L0,35.999 C0,37.105 0.895,38.001 2.001,38.001 L45.998,38.001 C47.103,38.001 47.999,37.112 47.999,35.999 L47.999,8.002 C47.999,6.896 47.104,6 45.998,6 L2.001,6 C0.896,6 -2.22044605e-15,6.889 -2.22044605e-15,8.002 L0,8.002 Z M2,7 L46,7 C46.5,7 47,7.444 47,8 L47,36 C47,36.486 46.465,37 46,37 L2,37 C1.435,37 1,36.451 1,36 L1,8 C1,7.427 1.468,7 2,7 L2,7 Z" id="collection"></path>
                        <path d="M26.5,21.409 L26.5,20.5 C26.5,19.671 25.829,19 25,19 L19.5,19 C18.671,19 18,19.671 18,20.5 L18,24.5 C18,25.329 18.671,26 19.5,26 L25,26 C25.829,26 26.5,25.329 26.5,24.5 L26.5,23.591 L30,25.5 L30,19.5 L26.5,21.409 L26.5,21.409 Z" id="Shape"></path>
                        <path d="M46,5 C46.25,5 46.5,4.746 46.5,4.497 C46.5,4.248 46.25,4 46,4 L2,4 C1.75,4 1.5,4.25 1.5,4.497 C1.5,4.744 1.75,5 2,5 L46,5 L46,5 Z" id="Path" opacity="0.8"></path>
                        <path d="M45,3 C45.25,3 45.5,2.746 45.5,2.497 C45.5,2.248 45.25,2 45,2 L3,2 C2.75,2 2.5,2.25 2.5,2.497 C2.5,2.744 2.75,3 3,3 L45,3 L45,3 Z" id="Path-2" opacity="0.6"></path>
                        <path d="M44,1 C44.25,1 44.5,0.746 44.5,0.497 C44.5,0.248 44.25,0 44,0 L4,0 C3.75,0 3.5,0.25 3.5,0.497 C3.5,0.744 3.75,1 4,1 L44,1 L44,1 Z" id="Path-3" opacity="0.4"></path>
                    </g>
                    <g transform="translate(0.000000, 96.000000)" fill="#FFFFFF">
                        <path d="M0,8.002 L0,35.999 C0,37.105 0.895,38.001 2.001,38.001 L45.998,38.001 C47.103,38.001 47.999,37.112 47.999,35.999 L47.999,8.002 C47.999,6.896 47.104,6 45.998,6 L2.001,6 C0.896,6 -2.22044605e-15,6.889 -2.22044605e-15,8.002 L0,8.002 Z M2,7 L46,7 C46.5,7 47,7.444 47,8 L47,36 C47,36.486 46.465,37 46,37 L2,37 C1.435,37 1,36.451 1,36 L1,8 C1,7.427 1.468,7 2,7 L2,7 Z" id="collection"></path>
                        <path d="M46,5 C46.25,5 46.5,4.746 46.5,4.497 C46.5,4.248 46.25,4 46,4 L2,4 C1.75,4 1.5,4.25 1.5,4.497 C1.5,4.744 1.75,5 2,5 L46,5 L46,5 Z" id="Path" opacity="0.8"></path>
                        <path d="M45,3 C45.25,3 45.5,2.746 45.5,2.497 C45.5,2.248 45.25,2 45,2 L3,2 C2.75,2 2.5,2.25 2.5,2.497 C2.5,2.744 2.75,3 3,3 L45,3 L45,3 Z" id="Path-2" opacity="0.6"></path>
                        <path d="M44,1 C44.25,1 44.5,0.746 44.5,0.497 C44.5,0.248 44.25,0 44,0 L4,0 C3.75,0 3.5,0.25 3.5,0.497 C3.5,0.744 3.75,1 4,1 L44,1 L44,1 Z" id="Path-3" opacity="0.4"></path>
                        <path d="M25,21 L28,21 C28.552,21 29,21.448 29,22 C29,22.552 28.552,23 28,23 L25,23 L25,26 C25,26.552 24.552,27 24,27 C23.448,27 23,26.552 23,26 L23,23 L20,23 C19.448,23 19,22.552 19,22 C19,21.448 19.448,21 20,21 L23,21 L23,18 C23,17.448 23.448,17 24,17 C24.552,17 25,17.448 25,18 L25,21 L25,21 Z" id="Path"></path>
                    </g>
                    <g transform="translate(0.000000, 48.000000)" fill="#51B364">
                        <path d="M0,8.002 L0,35.999 C0,37.105 0.895,38.001 2.001,38.001 L45.998,38.001 C47.103,38.001 47.999,37.112 47.999,35.999 L47.999,8.002 C47.999,6.896 47.104,6 45.998,6 L2.001,6 C0.896,6 -2.22044605e-15,6.889 -2.22044605e-15,8.002 L0,8.002 Z M2,7 L46,7 C46.5,7 47,7.444 47,8 L47,36 C47,36.486 46.465,37 46,37 L2,37 C1.435,37 1,36.451 1,36 L1,8 C1,7.427 1.468,7 2,7 L2,7 Z" id="collection"></path>
                        <path d="M46,5 C46.25,5 46.5,4.746 46.5,4.497 C46.5,4.248 46.25,4 46,4 L2,4 C1.75,4 1.5,4.25 1.5,4.497 C1.5,4.744 1.75,5 2,5 L46,5 L46,5 Z" id="Path" opacity="0.8"></path>
                        <path d="M45,3 C45.25,3 45.5,2.746 45.5,2.497 C45.5,2.248 45.25,2 45,2 L3,2 C2.75,2 2.5,2.25 2.5,2.497 C2.5,2.744 2.75,3 3,3 L45,3 L45,3 Z" id="Path-2" opacity="0.6"></path>
                        <path d="M44,1 C44.25,1 44.5,0.746 44.5,0.497 C44.5,0.248 44.25,0 44,0 L4,0 C3.75,0 3.5,0.25 3.5,0.497 C3.5,0.744 3.75,1 4,1 L44,1 L44,1 Z" id="Path-3" opacity="0.4"></path>
                        <path d="M25,21 L28,21 C28.552,21 29,21.448 29,22 C29,22.552 28.552,23 28,23 L25,23 L25,26 C25,26.552 24.552,27 24,27 C23.448,27 23,26.552 23,26 L23,23 L20,23 C19.448,23 19,22.552 19,22 C19,21.448 19.448,21 20,21 L23,21 L23,18 C23,17.448 23.448,17 24,17 C24.552,17 25,17.448 25,18 L25,21 L25,21 Z" id="Path"></path>
                    </g>
                    <g fill="#B7BCBD">
                        <path d="M0,8.002 L0,35.999 C0,37.105 0.895,38.001 2.001,38.001 L45.998,38.001 C47.103,38.001 47.999,37.112 47.999,35.999 L47.999,8.002 C47.999,6.896 47.104,6 45.998,6 L2.001,6 C0.896,6 -2.22044605e-15,6.889 -2.22044605e-15,8.002 L0,8.002 Z M2,7 L46,7 C46.5,7 47,7.444 47,8 L47,36 C47,36.486 46.465,37 46,37 L2,37 C1.435,37 1,36.451 1,36 L1,8 C1,7.427 1.468,7 2,7 L2,7 Z" id="Shape"></path>
                        <path d="M46,5 C46.25,5 46.5,4.746 46.5,4.497 C46.5,4.248 46.25,4 46,4 L2,4 C1.75,4 1.5,4.25 1.5,4.497 C1.5,4.744 1.75,5 2,5 L46,5 L46,5 Z" id="Path" opacity="0.8"></path>
                        <path d="M45,3 C45.25,3 45.5,2.746 45.5,2.497 C45.5,2.248 45.25,2 45,2 L3,2 C2.75,2 2.5,2.25 2.5,2.497 C2.5,2.744 2.75,3 3,3 L45,3 L45,3 Z" id="Shape" opacity="0.6"></path>
                        <path d="M44,1 C44.25,1 44.5,0.746 44.5,0.497 C44.5,0.248 44.25,0 44,0 L4,0 C3.75,0 3.5,0.25 3.5,0.497 C3.5,0.744 3.75,1 4,1 L44,1 L44,1 Z" id="Shape" opacity="0.4"></path>
                        <path d="M25,21 L28,21 C28.552,21 29,21.448 29,22 C29,22.552 28.552,23 28,23 L25,23 L25,26 C25,26.552 24.552,27 24,27 C23.448,27 23,26.552 23,26 L23,23 L20,23 C19.448,23 19,22.552 19,22 C19,21.448 19.448,21 20,21 L23,21 L23,18 C23,17.448 23.448,17 24,17 C24.552,17 25,17.448 25,18 L25,21 L25,21 Z" id="Shape"></path>
                    </g>
                </g>
            </g>
        </g>
    </g>
</svg>