<?xml version="1.0" encoding="UTF-8" standalone="no"?>
<svg width="222px" height="148px" viewBox="0 0 222 148" version="1.1" xmlns="http://www.w3.org/2000/svg" xmlns:xlink="http://www.w3.org/1999/xlink" xmlns:sketch="http://www.bohemiancoding.com/sketch/ns">
    <!-- Generator: Sketch 3.0.4 (8053) - http://www.bohemiancoding.com/sketch -->
    <title>Slice 1</title>
    <desc>Created with Sketch.</desc>
    <defs></defs>
    <g id="Page-1" stroke="none" stroke-width="1" fill="none" fill-rule="evenodd" sketch:type="MSPage">
        <g id="ellipsis" sketch:type="MSLayerGroup" transform="translate(89.000000, 68.000000)" fill="#000000">
            <path d="M6,0 C2.6865,0 0,2.6865 0,6 C0,9.3135 2.6865,12 6,12 C9.3135,12 12,9.3135 12,6 C12,2.6865 9.3135,0 6,0 L6,0 Z M6,8 C4.8955,8 4,7.1045 4,6 C4,4.8955 4.8955,4 6,4 C7.1045,4 8,4.8955 8,6 C8,7.1045 7.1045,8 6,8 L6,8 Z M22,0 C18.6865,0 16,2.6865 16,6 C16,9.3135 18.6865,12 22,12 C25.3135,12 28,9.3135 28,6 C28,2.6865 25.3135,0 22,0 L22,0 Z M22,8 C20.8955,8 20,7.1045 20,6 C20,4.8955 20.8955,4 22,4 C23.1045,4 24,4.8955 24,6 C24,7.1045 23.1045,8 22,8 L22,8 Z M38,0 C34.6865,0 32,2.6865 32,6 C32,9.3135 34.6865,12 38,12 C41.3135,12 44,9.3135 44,6 C44,2.6865 41.3135,0 38,0 L38,0 Z M38,8 C36.8955,8 36,7.1045 36,6 C36,4.8955 36.8955,4 38,4 C39.1045,4 40,4.8955 40,6 C40,7.1045 39.1045,8 38,8 L38,8 Z" id="Shape" sketch:type="MSShapeGroup"></path>
        </g>
    </g>
</svg>