<?xml version="1.0" encoding="UTF-8" standalone="no"?>
<svg width="222px" height="148px" viewBox="0 0 222 148" version="1.1" xmlns="http://www.w3.org/2000/svg" xmlns:xlink="http://www.w3.org/1999/xlink" xmlns:sketch="http://www.bohemiancoding.com/sketch/ns">
    <!-- Generator: Sketch 3.0.4 (8053) - http://www.bohemiancoding.com/sketch -->
    <title>Artboard 1</title>
    <desc>Created with Sketch.</desc>
    <defs></defs>
    <g id="Page-1" stroke="none" stroke-width="1" fill="none" fill-rule="evenodd" sketch:type="MSPage">
        <g id="Artboard-1" sketch:type="MSArtboardGroup" fill="#3B5998">
            <path d="M113.933333,73.8651163 C112.283333,73.8651163 111.091667,74.4093023 109.9,74.9534884 L109.9,87.1976744 C111,87.2883721 111.733333,87.2883721 112.833333,87.2883721 C116.775,87.2883721 117.325,85.4744186 117.325,83.0255814 L117.325,77.2209302 C117.325,75.3162791 116.683333,73.8651163 113.933333,73.8651163 L113.933333,73.8651163 Z M87.9,73.2302326 C85.15,73.2302326 84.6,74.6813953 84.6,76.5860465 L84.6,77.5837209 L91.2916667,77.5837209 L91.2916667,76.5860465 C91.2,74.6813953 90.5583333,73.2302326 87.9,73.2302326 L87.9,73.2302326 Z M37.3916667,85.927907 C37.3916667,87.3790698 38.125,88.1046512 39.5916667,88.1046512 C41.2416667,88.1046512 42.1583333,87.5604651 43.35,87.0162791 L43.35,84.1139535 L39.775,84.1139535 C38.125,84.1139535 37.3916667,84.4767442 37.3916667,85.927907 L37.3916667,85.927907 Z M139.325,73.8651163 C136.575,73.8651163 135.658333,75.3162791 135.658333,77.1302326 L135.658333,83.8418605 C135.658333,85.655814 136.575,87.1976744 139.325,87.1976744 C142.075,87.1976744 142.991667,85.7465116 142.991667,83.8418605 L142.991667,77.1302326 C142.991667,75.3162791 142.075,73.8651163 139.325,73.8651163 L139.325,73.8651163 Z M24.0083333,93.455814 L16.0333333,93.455814 L16.0333333,74.227907 L12,74.227907 L12,67.6069767 L16.0333333,67.6069767 L16.0333333,63.6162791 C16.0333333,58.1744186 18.325,55 24.7416667,55 L30.0583333,55 L30.0583333,61.6209302 L26.7583333,61.6209302 C24.2833333,61.6209302 24.1,62.527907 24.1,64.2511628 L24.1,67.6069767 L30.15,67.6069767 L29.4166667,74.227907 L24.1,74.227907 L24.1,93.455814 L24.0083333,93.455814 Z M51.4166667,93.455814 L44.725,93.455814 L44.45,91.8232558 C41.425,93.455814 38.675,93.727907 36.8416667,93.727907 C31.9833333,93.727907 29.325,90.4627907 29.325,86.0186047 C29.325,80.7581395 32.35,78.8534884 37.85,78.8534884 L43.35,78.8534884 L43.35,77.6744186 C43.35,74.9534884 43.075,74.227907 38.8583333,74.227907 L32.075,74.227907 L32.7166667,67.6069767 L40.2333333,67.6069767 C49.4,67.6069767 51.4166667,70.5093023 51.4166667,77.7651163 L51.4166667,93.455814 L51.4166667,93.455814 Z M74.15,74.6813953 C70.025,73.955814 68.8333333,73.8651163 66.8166667,73.8651163 C63.2416667,73.8651163 62.1416667,74.6813953 62.1416667,77.6744186 L62.1416667,83.3883721 C62.1416667,86.3813953 63.2416667,87.1976744 66.8166667,87.1976744 C68.8333333,87.1976744 70.025,87.0162791 74.15,86.2906977 L74.15,92.7302326 C70.4833333,93.5465116 68.1,93.727907 66.0833333,93.727907 C57.4666667,93.727907 54.075,89.2837209 54.075,82.7534884 L54.075,78.127907 C54.075,71.6883721 57.4666667,67.1534884 66.0833333,67.1534884 C68.1,67.1534884 70.4833333,67.3348837 74.15,68.1511628 L74.15,74.6813953 L74.15,74.6813953 Z M99.2666667,82.844186 L84.6,82.844186 L84.6,83.3883721 C84.6,86.3813953 85.7,87.1976744 89.275,87.1976744 C92.4833333,87.1976744 94.5,87.0162791 98.625,86.2906977 L98.625,92.7302326 C94.5916667,93.5465116 92.575,93.727907 88.6333333,93.727907 C80.0166667,93.727907 76.625,89.2837209 76.625,82.7534884 L76.625,77.4930233 C76.625,71.8697674 79.1916667,67.1534884 87.9916667,67.1534884 C96.7916667,67.1534884 99.3583333,71.7790698 99.3583333,77.4930233 L99.3583333,82.844186 L99.2666667,82.844186 Z M125.3,82.9348837 C125.3,89.1930233 123.466667,93.727907 112.558333,93.727907 C108.616667,93.727907 106.325,93.3651163 101.925,92.7302326 L101.925,56.9953488 L109.9,55.6348837 L109.9,68.1511628 C111.641667,67.5162791 113.841667,67.1534884 115.95,67.1534884 C123.925,67.1534884 125.3,70.6906977 125.3,76.4046512 L125.3,82.9348837 L125.3,82.9348837 Z M150.966667,83.1162791 C150.966667,88.4674419 148.675,93.727907 139.325,93.727907 C129.883333,93.727907 127.591667,88.4674419 127.591667,83.1162791 L127.591667,77.855814 C127.591667,72.4139535 129.883333,67.244186 139.325,67.244186 C148.766667,67.244186 150.966667,72.5046512 150.966667,77.855814 L150.966667,83.1162791 L150.966667,83.1162791 Z M176.725,83.1162791 C176.725,88.4674419 174.433333,93.727907 165.083333,93.727907 C155.641667,93.727907 153.35,88.4674419 153.35,83.1162791 L153.35,77.855814 C153.35,72.4139535 155.641667,67.244186 165.083333,67.244186 C174.525,67.244186 176.725,72.5046512 176.725,77.855814 L176.725,83.1162791 L176.725,83.1162791 Z M203.033333,93.455814 L194.325,93.455814 L186.991667,81.3023256 L186.991667,93.455814 L179.016667,93.455814 L179.016667,56.9953488 L186.991667,55.6348837 L186.991667,79.0348837 L194.325,67.5162791 L203.033333,67.5162791 L194.966667,80.1232558 L203.033333,93.455814 L203.033333,93.455814 Z M164.991667,73.8651163 C162.241667,73.8651163 161.325,75.3162791 161.325,77.1302326 L161.325,83.8418605 C161.325,85.655814 162.241667,87.1976744 164.991667,87.1976744 C167.741667,87.1976744 168.658333,85.7465116 168.658333,83.8418605 L168.658333,77.1302326 C168.658333,75.3162791 167.741667,73.8651163 164.991667,73.8651163 L164.991667,73.8651163 Z M207.616667,88.9209302 C208.991667,88.9209302 210,90.0093023 210,91.3697674 C210,92.7302326 208.9,93.8186047 207.525,93.8186047 C206.15,93.8186047 205.05,92.7302326 205.05,91.3697674 C205.05,90.0093023 206.15,88.9209302 207.525,88.9209302 L207.616667,88.9209302 L207.616667,88.9209302 Z M207.616667,89.2837209 C206.516667,89.2837209 205.6,90.1906977 205.6,91.3697674 C205.6,92.5488372 206.516667,93.455814 207.616667,93.455814 C208.716667,93.455814 209.633333,92.5488372 209.633333,91.3697674 C209.633333,90.1906977 208.716667,89.2837209 207.616667,89.2837209 L207.616667,89.2837209 L207.616667,89.2837209 Z M207.158333,92.8209302 L206.7,92.8209302 L206.7,90.0093023 C206.975,90.0093023 207.158333,89.9186047 207.525,89.9186047 C207.983333,89.9186047 208.258333,90.0093023 208.35,90.1 C208.533333,90.1906977 208.625,90.372093 208.625,90.644186 C208.625,91.0069767 208.35,91.1883721 208.075,91.2790698 L208.075,91.2790698 C208.35,91.2790698 208.441667,91.5511628 208.533333,91.9139535 C208.625,92.3674419 208.625,92.4581395 208.716667,92.5488372 L208.258333,92.5488372 C208.166667,92.4581395 208.166667,92.1860465 208.075,91.8232558 C207.983333,91.4604651 207.8,91.3697674 207.525,91.3697674 L207.25,91.3697674 L207.25,92.8209302 L207.158333,92.8209302 Z M207.158333,91.2790698 L207.433333,91.2790698 C207.8,91.2790698 208.075,91.1883721 208.075,90.8255814 C208.075,90.5534884 207.891667,90.372093 207.433333,90.372093 L207.158333,90.372093 L207.158333,91.2790698 L207.158333,91.2790698 Z" id="Shape" sketch:type="MSShapeGroup"></path>
        </g>
    </g>
</svg>