<?xml version="1.0" encoding="UTF-8" standalone="no"?>
<svg width="64px" height="192px" viewBox="0 0 64 192" version="1.1" xmlns="http://www.w3.org/2000/svg" xmlns:xlink="http://www.w3.org/1999/xlink" xmlns:sketch="http://www.bohemiancoding.com/sketch/ns">
    <!-- Generator: Sketch 3.1 (8751) - http://www.bohemiancoding.com/sketch -->
    <title>feature-icon-sprite</title>
    <desc>Created with Sketch.</desc>
    <defs></defs>
    <g id="Page-1" stroke="none" stroke-width="1" fill="none" fill-rule="evenodd" sketch:type="MSPage">
        <g id="iOS-TabBar-/-Discover" sketch:type="MSLayerGroup" transform="translate(8.000000, 8.000000)" fill="#000000">
            <path d="M47.7,46.3 L38.5,37.4 C38.1,37 37.5,37 37.1,37.4 C36.7,37.8 36.7,38.4 37.1,38.8 L46.3,47.7 C46.5,47.9 46.8,48 47,48 C47.3,48 47.5,47.9 47.7,47.7 C48.1,47.3 48.1,46.7 47.7,46.3 L47.7,46.3 Z M21,0 C9.4,0 0,9.4 0,21 C0,32.6 9.4,42 21,42 C32.6,42 42,32.6 42,21 C42,9.4 32.6,0 21,0 L21,0 Z M21,40 C10.5,40 2,31.5 2,21 C2,10.5 10.5,2 21,2 C31.5,2 40,10.5 40,21 C40,31.5 31.5,40 21,40 L21,40 Z" id="Shape" sketch:type="MSShapeGroup"></path>
        </g>
        <g id="iOS-TabBar-/-User" sketch:type="MSLayerGroup" transform="translate(5.000000, 69.000000)" fill="#000000">
            <path d="M27,54 C41.9116882,54 54,41.9116882 54,27 C54,12.0883118 41.9116882,0 27,0 C12.0883118,0 0,12.0883118 0,27 C0,41.9116882 12.0883118,54 27,54 Z M27,52 C40.8071187,52 52,40.8071187 52,27 C52,13.1928813 40.8071187,2 27,2 C13.1928813,2 2,13.1928813 2,27 C2,40.8071187 13.1928813,52 27,52 Z M14.2258065,43.7906977 C14.2258065,44.6046512 14.4193548,45.3023256 14.6129032,46 C13.6451613,45.4186047 12.7741935,44.8372093 12,44.0232558 L12,43.6744186 C12,40.1860465 13.8387097,37.1627907 16.3548387,36 C16.9354839,37.0465116 17.4193548,37.744186 18,38.4418605 C15.8709677,38.9069767 14.2258065,41.1162791 14.2258065,43.7906977 Z M16,26 C16,18 21,12 27,12 C33,12 38,18 38,26 C38,34 33,40 27,40 C21,40 16,34 16,26 Z M18,26 C18,32.5641026 22.6097561,38 27,38 C31.3902439,38 36,32.5641026 36,26 C36,19.4358974 31.3902439,14 27,14 C22.6097561,14 18,19.4358974 18,26 Z M39.3870968,46 C39.6774194,45.2941176 39.7741935,44.5882353 39.7741935,43.7647059 C39.7741935,41.0588235 38.1290323,38.8235294 36,38.3529412 C36.5806452,37.6470588 37.1612903,36.9411765 37.6451613,36 C40.2580645,37.1764706 42,40.2352941 42,43.7647059 L42,44.1176471 C41.2258065,44.7058824 40.3548387,45.4117647 39.3870968,46 Z" id="Oval-11" sketch:type="MSShapeGroup"></path>
        </g>
        <g id="iOS-Icon-/-Share" sketch:type="MSLayerGroup" transform="translate(13.000000, 134.000000)" fill="#000000">
            <path d="M24,17 L36,17 L36,51 L2,51 L2,17 L14,17 L14,15 L0,15 L0,53 L38,53 L38,15 L24,15 L24,17 Z M18,35 L20,35 L20,3.8 L26.1,9.9 L27.5,8.5 L19,0 L10.5,8.5 L11.9,9.9 L18,3.8 L18,35 Z" id="Shape" sketch:type="MSShapeGroup"></path>
        </g>
    </g>
</svg>