<?xml version="1.0" encoding="UTF-8" standalone="no"?>
<svg width="222px" height="148px" viewBox="0 0 222 148" version="1.1" xmlns="http://www.w3.org/2000/svg" xmlns:xlink="http://www.w3.org/1999/xlink" xmlns:sketch="http://www.bohemiancoding.com/sketch/ns">
    <!-- Generator: Sketch 3.0.4 (8053) - http://www.bohemiancoding.com/sketch -->
    <title>Artboard 1</title>
    <desc>Created with Sketch.</desc>
    <defs></defs>
    <g id="Page-1" stroke="none" stroke-width="1" fill="none" fill-rule="evenodd" sketch:type="MSPage">
        <g id="Artboard-1" sketch:type="MSArtboardGroup" fill="#000000">
            <path d="M173.021096,88.7752199 C172.776047,88.8818648 172.527675,88.9882524 172.275981,89.094382 C166.617245,91.5309339 161.393134,92.7462962 156.603626,92.7462962 C154.20596,92.7462962 152.409157,91.9185675 151.213244,90.2602006 C157.665364,89.1993049 163.023659,86.7132093 167.285211,82.7989919 C171.275494,79.2170168 173.139377,75.7341536 172.873943,72.3532908 C172.474327,67.0488316 169.014919,64.3936914 162.492792,64.3936914 C155.439789,64.3936914 149.317274,67.0546568 144.12817,72.3707721 C139.40283,77.2263913 137.005156,82.3443165 136.940988,87.7274586 C136.923111,88.6314639 136.966746,89.5021493 137.07184,90.3396252 C135.956305,91.074043 135.114657,91.4405872 134.546231,91.4405872 C133.280314,91.4405872 132.48401,91.1782719 132.151481,90.6478342 C131.81896,90.1173884 131.684781,89.158502 131.751873,87.76536 C131.751873,87.2349101 132.166069,85.2005641 133.000289,81.6564864 C133.831601,78.1124128 134.280809,75.4135496 134.347884,73.5569913 C134.479143,70.8435547 133.945364,68.7567456 132.749435,67.2994819 C131.352256,65.5099532 129.056678,64.749263 125.862711,65.0144823 C123.202516,65.2155856 120.638584,66.2123584 118.176746,68.0077115 C116.712468,69.0715183 115.216126,70.4996405 113.687676,72.294994 C113.153889,72.7613165 112.655106,73.1955835 112.18841,73.5919592 C112.252577,70.866873 111.721706,68.7713145 110.592881,67.3082252 C109.192774,65.5128717 106.865111,64.749263 103.604046,65.0144823 C99.8117472,65.3467416 96.3844311,66.8448102 93.3246233,69.5028681 C91.9916076,70.6337085 90.8277825,71.9656474 89.8302077,73.4928697 C89.9614706,72.8953907 90.0285579,72.2629332 90.0285579,71.5984201 C90.0285579,69.5378466 89.4947628,67.7249999 88.4301128,66.1628106 C87.3654546,64.6006203 85.9682716,63.8865595 84.2385595,64.0206279 C83.2409928,64.0876628 81.3450305,65.4166889 78.5506643,68.0077115 C74.6887241,71.5984201 72.5944116,73.5278376 72.2618826,73.7901554 L74.6566364,76.483182 C76.5205232,75.1395838 77.6522646,74.4663258 78.051881,74.4663258 C78.7810982,74.4663258 79.0815314,75.0638052 78.9502767,76.2558464 C78.8861012,77.981251 78.5798321,80.3828232 78.0314571,83.4664186 C77.6916607,85.3771839 77.4459384,87.0272007 77.2929081,88.415769 L77.2929081,88.415769 C77.2636501,88.4398777 77.2343129,88.4640072 77.2048964,88.4881577 C74.8072185,90.4583878 73.14461,91.4405872 72.2141226,91.4405872 C70.0848063,91.4405872 69.052236,90.0182928 69.1193152,87.1678684 C70.1168981,80.9424214 71.0502934,75.8099241 71.9166013,71.7674626 C72.1791189,69.3833726 71.7970145,67.4481246 70.767356,65.9558824 C69.7347775,64.4636383 68.1217566,63.8195254 65.9282609,64.0177103 C64.52817,64.1517848 62.3988415,65.4808109 59.5373921,68.0077115 C58.5459268,68.9060972 57.5544642,69.8038536 56.5630013,70.7012733 C56.3667518,65.9951766 54.2118767,63.5817645 50.0983997,63.4610362 C43.9379596,63.2628449 39.7639122,66.7369712 37.5791749,73.8892454 C38.7080061,73.4054301 39.8047495,73.160616 40.8694072,73.160616 C43.1299871,73.160616 44.1275542,74.4313461 43.8621195,76.9669977 C43.7279472,78.5029519 42.7303719,80.738407 40.8694072,83.6762643 C39.0055281,86.6141096 37.6083422,88.0830383 36.6778625,88.0830383 C35.4790268,88.0830383 34.3822825,85.8213646 33.3847106,81.2921699 C33.0492766,79.9631316 32.4513108,76.5677014 31.5879168,71.1087801 C30.7886955,66.049146 28.6593804,63.6854562 25.1999713,64.0177103 C23.7356993,64.1517848 21.5392916,65.4808109 18.6136671,68.0077115 C16.4843517,69.9371294 14.3200309,71.863645 12.1265421,73.7901554 L14.2179464,76.483182 C16.2101638,75.0900319 17.3740011,74.3905432 17.706522,74.3905432 C19.2320478,74.3905432 20.6584015,76.7833867 21.9884951,81.5632261 C23.1844112,85.946687 24.3803269,90.3301438 25.5762434,94.7136128 C27.3672048,99.4963577 29.5606929,101.886288 32.1508761,101.886288 C36.3336692,101.886288 41.4469523,97.9603994 47.4907119,90.1086394 C51.7386337,84.6462508 54.4954278,80.0257986 55.761088,76.2484053 L55.761088,76.2484053 C57.4373724,75.011455 58.4637639,74.3905432 58.8402626,74.3905432 C60.0361836,74.3905432 60.637058,75.2561652 60.637058,76.9815739 C60.637058,77.3138243 59.9865879,79.7737014 58.6885799,84.3582591 C57.3905801,88.9428209 56.7080304,92.3324319 56.6438509,94.5241664 C56.5767716,96.6517687 57.0930548,98.3771814 58.1897885,99.7062035 C59.2865384,101.035238 60.8674878,101.699755 62.9326367,101.699755 C67.3896194,101.699755 71.8466021,99.7732412 76.3064926,95.920222 C76.6999993,95.575565 77.0833126,95.22607 77.4564377,94.8717369 C77.8090232,96.3633421 78.4233176,97.5831483 79.3002933,98.5316441 C81.2196036,100.589315 84.4631615,101.551111 89.0309872,101.41704 C88.4213568,99.9539426 88.182175,97.3629241 88.3163538,93.6381409 C88.5146999,89.5169954 89.5822781,85.5590452 91.5132441,81.7701542 C93.4442223,77.981251 95.2439256,76.0838939 96.9123822,76.0838939 C98.8433523,76.0838939 99.7446639,77.3138243 99.6104851,79.7737014 C99.5434018,81.4378957 99.2167088,83.3323513 98.6304182,85.4599536 C98.0412117,87.5875641 97.7145187,89.7151826 97.6503432,91.842789 C97.5161685,95.2353055 98.2774694,97.6601988 99.9400941,99.1233003 C101.795225,100.784577 105.047904,101.551111 109.691565,101.41704 C108.997348,99.8898307 108.717322,97.6951786 108.851501,94.8330997 C109.049851,90.7789878 110.420782,86.5908006 112.958463,82.268542 C115.361965,78.1473843 117.430025,76.0838939 119.165565,76.0838939 C120.769846,76.0838939 121.536979,77.3488041 121.469896,79.872789 C121.402805,81.5340777 120.985701,83.8598713 120.221471,86.8501861 C119.457246,89.840509 119.040138,92.3965559 118.975967,94.5241664 C118.841788,99.309829 120.936101,101.699755 125.264749,101.699755 C129.721731,101.699755 134.178706,99.7732412 138.638605,95.920222 C138.709987,95.8577009 138.781034,95.7950206 138.851746,95.7321811 L138.851746,95.7321811 C139.004007,95.9940346 139.16534,96.2510138 139.335742,96.5031252 C141.663401,100.090928 145.525345,101.886288 150.915727,101.886288 C158.167076,101.886288 165.322161,99.8635919 172.375152,95.8123855 C173.161506,95.3694801 173.911829,94.9265744 174.626131,94.4836606 C175.070539,95.3799608 175.600048,96.2163599 176.214487,96.9927722 C178.941762,100.379466 182.934961,102.072812 188.191164,102.072812 C194.51203,102.072812 199.803241,99.8490197 204.061873,95.4014388 C208.32051,90.9538539 210.581085,85.6756226 210.849434,79.566753 C211.047784,75.0550603 210.018126,71.3710873 207.754631,68.514839 C205.356965,65.396289 201.830466,63.8340997 197.175137,63.8340997 C189.920872,63.8340997 183.900448,66.4892386 179.110944,71.7995234 C174.648134,76.5793641 172.585905,81.8255333 172.921342,87.5350986 C172.943424,87.9562766 172.976678,88.3696518 173.021096,88.7752199 L173.021096,88.7752199 Z M75.30893,50.8877263 C75.2418386,52.5431808 74.4105262,54.1316066 72.812081,55.6529923 C71.0152938,57.3725693 68.8859694,58.2323543 66.4241364,58.2323543 C62.6321954,58.2323543 60.8004004,56.5798183 60.9345833,53.2718212 C60.9987466,51.5522389 62.0138253,49.8967852 63.976875,48.308359 C65.9399288,46.7228512 68.1188326,45.9271882 70.5165064,45.9271882 C71.9136854,45.9271882 73.0775146,46.4751194 74.0109098,47.5651558 C74.9414013,48.6581049 75.3730933,49.765634 75.30893,50.8877263 Z M161.095608,75.8390643 C161.159784,74.0553751 160.430567,73.160616 158.902125,73.160616 C156.906983,73.160616 154.88267,74.5333594 152.823357,77.2788487 C150.764044,80.0243501 149.699382,82.6532539 149.635223,85.1655884 C149.597295,85.1655884 149.597295,85.5969426 149.635223,86.4567293 C152.890445,85.2675936 155.713978,83.4489287 158.10582,81.0007142 C160.030946,78.8847623 161.028525,77.1622672 161.095608,75.8390643 Z M199.569895,79.1907861 C199.636974,77.3925125 199.386124,75.7428864 198.820254,74.2448174 C198.254375,72.746748 197.437659,71.9948011 196.375912,71.9948011 C192.980676,71.9948011 190.18631,73.8280414 187.992826,77.4916081 C186.126023,80.4906759 185.128449,83.6879188 184.997194,87.0833449 C184.930107,88.750469 185.230544,90.21648 185.895594,91.481382 C186.624811,92.9474012 187.657381,93.6789478 188.990397,93.6789478 C191.983101,93.6789478 194.547033,91.9156499 196.676358,88.3832388 C198.473153,85.4512128 199.43572,82.388033 199.569895,79.1907861 Z" id="v" sketch:type="MSShapeGroup"></path>
        </g>
    </g>
</svg>