<?xml version="1.0" encoding="UTF-8" standalone="no"?>
<svg width="222px" height="148px" viewBox="0 0 222 148" version="1.1" xmlns="http://www.w3.org/2000/svg" xmlns:xlink="http://www.w3.org/1999/xlink" xmlns:sketch="http://www.bohemiancoding.com/sketch/ns">
    <!-- Generator: Sketch 3.0.4 (8053) - http://www.bohemiancoding.com/sketch -->
    <title>Artboard 1</title>
    <desc>Created with Sketch.</desc>
    <defs></defs>
    <g id="Page-1" stroke="none" stroke-width="1" fill="none" fill-rule="evenodd" sketch:type="MSPage">
        <g id="Artboard-1" sketch:type="MSArtboardGroup" fill="#010101">
            <path d="M95.0243483,59 L99.3832375,59 L87.0449482,89.6292416 L86.0842373,89.6292416 L76.1050139,64.8286247 L66.0239856,89.6292416 L65.0866782,89.6292416 L52.7858343,59 L57.18919,59 L65.5980431,80.0221328 L74.0654048,59 L78.1961106,59 L86.7009177,80.0221328 L95.0243483,59 Z M105.161545,58.7460728 L105.161545,89.2454253 L109.530966,89.2454253 L109.530966,58.7460728 L105.161545,58.7460728 Z M125.984748,76.7187383 L122.663801,74.7037028 C120.580896,73.4317263 119.099459,72.181983 118.21832,70.9521327 C117.33718,69.7222823 116.898366,68.3063747 116.898366,66.70558 C116.898366,64.3043879 117.730358,62.3537118 119.397853,60.854722 C121.065347,59.354562 123.232505,58.6056522 125.896986,58.6056522 C128.446789,58.6056522 130.782452,59.320627 132.909824,60.7505767 L132.909824,65.7062534 C130.711072,63.5917533 128.343814,62.5362586 125.810393,62.5362586 C124.382784,62.5362586 123.210272,62.8650768 122.292857,63.5262237 C121.376613,64.1850303 120.916735,65.0298942 120.916735,66.0596452 C120.916735,66.9723791 121.256085,67.8277745 121.931274,68.6258316 C122.606463,69.4238886 123.694723,70.2605613 125.192542,71.1370198 L128.529872,73.1110993 C132.252188,75.332085 134.11276,78.1615599 134.11276,81.5948434 C134.11276,84.0393318 133.29481,86.0274534 131.6554,87.5545273 C130.01716,89.0827714 127.887447,89.8468935 125.265093,89.8468935 C122.250731,89.8468935 119.505508,88.9212878 117.029425,87.0677359 L117.029425,81.5234629 C119.388491,84.510911 122.119672,86.00405 125.220626,86.00405 C126.588557,86.00405 127.729474,85.6249144 128.638698,84.8619625 C129.549091,84.1001808 130.004288,83.1476611 130.004288,82.0020631 C130.004288,80.1473411 128.664441,78.3862329 125.984748,76.7187383 M138.554732,58.9555335 L164.04692,58.9555335 L164.04692,62.8428435 L153.40889,62.8428435 L153.40889,89.4981823 L149.018406,89.4981823 L149.018406,62.8428435 L138.554732,62.8428435 L138.554732,58.9555335 Z M170.691154,58.7460728 L170.691154,89.2454253 L175.059405,89.2454253 L175.059405,58.7460728 L170.691154,58.7460728 Z M193.578541,58.8256444 L196.650241,58.8256444 L210.333058,89.4970122 L205.861832,89.4970122 L201.793145,80.4597769 L188.773816,80.4597769 L184.960227,89.4970122 L180.470278,89.4970122 L193.578541,58.8256444 L193.578541,58.8256444 Z M43.9929988,70.6039388 C47.6202989,75.74045 47.8183179,81.8198639 33.696825,85.3487539 C29.8797253,86.3024437 13.6576364,85.349924 13.6576364,85.349924 C13.6576364,85.349924 19.3832861,79.6254446 27.0174856,77.719235 L31.7894453,77.719235 C43.7412669,75.7284047 46.0457728,72.5739325 44.6751998,69.5744758 C46.9551554,64.4895225 34.630622,58.5061876 34.630622,58.5061876 C34.630622,58.5061876 50.5443243,63.4476145 42.3077009,66.6815475 C38.9556408,63.7589039 33.696825,61.5065076 33.696825,61.5065076 C33.696825,61.5065076 37.5493939,63.8416479 40.9560471,67.1330378 C39.6096828,67.5197408 37.8457882,67.8740002 35.5831417,68.1823365 C21.469702,67.8874533 19.2323339,67.8874533 12.6817133,68.0430861 C12.6817133,68.0430861 20.3159128,73.9033055 26.9964225,74.8581655 C27.8869231,74.8581655 32.6764354,74.9073127 33.675762,74.7189151 C39.4335817,73.6444153 42.5705597,72.1955546 43.9929988,70.6039388 Z M199.998102,76.5736371 L195.07402,65.5272172 L190.50801,76.5736371 L199.998102,76.5736371 Z" id="Shape" sketch:type="MSShapeGroup"></path>
        </g>
    </g>
</svg>