<?xml version="1.0" encoding="UTF-8" standalone="no"?>
<svg width="222px" height="148px" viewBox="0 0 222 148" version="1.1" xmlns="http://www.w3.org/2000/svg" xmlns:xlink="http://www.w3.org/1999/xlink" xmlns:sketch="http://www.bohemiancoding.com/sketch/ns">
    <!-- Generator: Sketch 3.0.4 (8053) - http://www.bohemiancoding.com/sketch -->
    <title>Artboard 1</title>
    <desc>Created with Sketch.</desc>
    <defs></defs>
    <g id="Page-1" stroke="none" stroke-width="1" fill="none" fill-rule="evenodd" sketch:type="MSPage">
        <g id="Artboard-1" sketch:type="MSArtboardGroup">
            <g id="Shape-+-swoosh" sketch:type="MSLayerGroup" transform="translate(12.000000, 59.000000)">
                <path d="M82.4066627,0.250384615 L86.7708639,0.250384615 L74.4175385,30.4523077 L73.4556568,30.4523077 L63.4642722,5.99769231 L53.3709586,30.4523077 L52.4325089,30.4523077 L40.1166746,0.250384615 L44.5253964,0.250384615 L52.944497,20.9792308 L61.4221775,0.250384615 L65.5579172,0.250384615 L74.0730888,20.9792308 L82.4066627,0.250384615 Z M92.556213,-8.32667268e-16 L92.556213,30.0738462 L96.9309586,30.0738462 L96.9309586,-8.32667268e-16 L92.556213,-8.32667268e-16 Z M113.404793,17.7219231 L110.079799,15.735 C107.994355,14.4807692 106.511112,13.2484615 105.628899,12.0357692 C104.746686,10.8230769 104.307337,9.42692308 104.307337,7.84846154 C104.307337,5.48076923 105.140343,3.55730769 106.80987,2.07923077 C108.479396,0.6 110.649195,-0.138461538 113.316923,-0.138461538 C115.869834,-0.138461538 118.208343,0.566538462 120.338308,1.97653846 L120.338308,6.86307692 C118.136876,4.77807692 115.766734,3.73730769 113.230225,3.73730769 C111.800876,3.73730769 110.626935,4.06153846 109.708402,4.71346154 C108.791041,5.36307692 108.330604,6.19615385 108.330604,7.21153846 C108.330604,8.11153846 108.670367,8.955 109.346379,9.74192308 C110.022391,10.5288462 111.111976,11.3538462 112.611621,12.2180769 L115.953018,14.1646154 C119.67987,16.3546154 121.54271,19.1446154 121.54271,22.53 C121.54271,24.9403846 120.723763,26.9007692 119.082355,28.4065385 C117.442118,29.9134615 115.309811,30.6669231 112.68426,30.6669231 C109.666225,30.6669231 106.917657,29.7542308 104.438556,27.9265385 L104.438556,22.4596154 C106.800497,25.4053846 109.535006,26.8776923 112.63974,26.8776923 C114.009337,26.8776923 115.151645,26.5038462 116.061976,25.7515385 C116.973479,25.0003846 117.429231,24.0611538 117.429231,22.9315385 C117.429231,21.1026923 116.087751,19.3661538 113.404793,17.7219231 M125.990095,0.206538462 L151.513349,0.206538462 L151.513349,4.03961538 L140.862355,4.03961538 L140.862355,30.3230769 L136.466521,30.3230769 L136.466521,4.03961538 L125.990095,4.03961538 L125.990095,0.206538462 Z M158.16568,-8.32667268e-16 L158.16568,30.0738462 L162.539254,30.0738462 L162.539254,-8.32667268e-16 L158.16568,-8.32667268e-16 Z M181.080959,0.0784615385 L184.156402,0.0784615385 L197.855893,30.3219231 L193.379219,30.3219231 L189.305574,21.4107692 L176.270379,21.4107692 L172.452142,30.3219231 L167.956722,30.3219231 L181.080959,0.0784615385 L181.080959,0.0784615385 Z M187.508343,17.5788462 L182.57826,6.68653846 L178.006686,17.5788462 L187.508343,17.5788462 L187.508343,17.5788462 Z" id="Shape" fill="#010101" sketch:type="MSShapeGroup"></path>
                <g id="swoosh" sketch:type="MSShapeGroup">
                    <path d="M21.0044024,26.2315385 C48.8907692,19.3684615 21.0044024,2.72192308 21.0044024,2.72192308 C21.0044024,2.72192308 47.7566627,14.0065385 19.0946982,18.7084615 L14.3169231,18.7084615 C6.67342012,20.5880769 0.940792899,26.2326923 0.940792899,26.2326923 C0.940792899,26.2326923 17.1826509,27.1719231 21.0044024,26.2315385" id="Shape" fill="#146E8A"></path>
                    <path d="M20.9833136,15.75 C45.8258698,11.1842308 21.9393373,-0.236538462 21.9393373,-0.236538462 C21.9393373,-0.236538462 43.9138225,6.48346154 22.8930178,9.30461538 C8.7623787,9.01384615 6.52228402,9.01384615 -0.0363195266,9.16730769 C-0.0363195266,9.16730769 7.60718343,14.9457692 14.2958343,15.8873077 C15.1874201,15.8873077 19.9827692,15.9357692 20.9833136,15.75" id="Shape" fill="#1BA1C1"></path>
                </g>
            </g>
        </g>
    </g>
</svg>