<?xml version="1.0" encoding="UTF-8" standalone="no"?>
<svg width="222px" height="148px" viewBox="0 0 222 148" version="1.1" xmlns="http://www.w3.org/2000/svg" xmlns:xlink="http://www.w3.org/1999/xlink" xmlns:sketch="http://www.bohemiancoding.com/sketch/ns">
    <!-- Generator: Sketch 3.0.4 (8053) - http://www.bohemiancoding.com/sketch -->
    <title>Artboard 1</title>
    <desc>Created with Sketch.</desc>
    <defs></defs>
    <g id="Page-1" stroke="none" stroke-width="1" fill="none" fill-rule="evenodd" sketch:type="MSPage">
        <g id="Artboard-1" sketch:type="MSArtboardGroup" fill="#000000">
            <g id="wonder-logo-vertical-102x72" sketch:type="MSLayerGroup" transform="translate(60.000000, 39.000000)">
                <g id="Page-1" sketch:type="MSShapeGroup">
                    <path d="M64,63 L64,64 L102,64 L102,63 L64,63 L64,63 Z M64,65 L64,66 L90,66 L90,65 L64,65 L64,65 Z M64,67 L64,68 L80,68 L80,67 L64,67 L64,67 Z M38,63 L38,64 L2.64242317e-08,64 L2.64242317e-08,63 L38,63 L38,63 Z M38,65 L38,66 L12,66 L12,65 L38,65 L38,65 Z M38,67 L38,68 L22,68 L22,67 L38,67 L38,67 Z M43,66.9999999 L46,66.9999999 C48,67 49,65.0000002 49,64.0000001 C49,63 48,61 46,61 L41,61 L41,71.0050667 L43,71.0050667 L43,66.9999999 L43,66.9999999 Z M43,65 L43,62.9999999 L46,62.9999999 C46.852272,62.9999999 47,63.0321333 47,63.8833333 C47,64.7193333 46.852272,65 46,65 L43,65 L43,65 Z M61,69 L57,69 L57,61 L55,61 L55,71 L61,71 L61,69 L61,69 Z M91,0 L79.2631875,0 L68.5774794,37.7270855 L56.4025098,0 L46.4235495,0 L34.4106474,37.7270855 L23.6640101,0 L12,0 L28.3679297,53 L39.5757909,53 L51.5000001,14.1037794 L63.2368288,53 L75.0673478,53 L91,0 L91,0 Z" id="wonder-2"></path>
                </g>
            </g>
        </g>
    </g>
</svg>