<?xml version="1.0" encoding="UTF-8" standalone="no"?>
<svg width="222px" height="148px" viewBox="0 0 222 148" version="1.1" xmlns="http://www.w3.org/2000/svg" xmlns:xlink="http://www.w3.org/1999/xlink" xmlns:sketch="http://www.bohemiancoding.com/sketch/ns">
    <!-- Generator: Sketch 3.0.4 (8053) - http://www.bohemiancoding.com/sketch -->
    <title>Artboard 1</title>
    <desc>Created with Sketch.</desc>
    <defs></defs>
    <g id="Page-1" stroke="none" stroke-width="1" fill="none" fill-rule="evenodd" sketch:type="MSPage">
        <g id="Artboard-1" sketch:type="MSArtboardGroup">
            <g id="youtube" sketch:type="MSLayerGroup" transform="translate(60.000000, 12.000000)">
                <path d="M97.1367078,61.7101016 C92.2523373,56.9113984 51.0814062,56.8474609 51.0814062,56.8510938 C51.0814062,56.8474609 9.91677435,56.9113984 5.01907838,61.7101016 C0.121140143,66.5160703 0.107814727,90.2424531 0.107814727,90.3790469 L0.107814727,90.4226406 C0.107814727,90.5589922 0.121382423,114.245172 5.01907838,119.051383 C9.91628979,123.846938 51.0814062,123.950352 51.0814062,123.950352 C51.0814062,123.950352 92.2523373,123.846938 97.1367078,119.051141 C102.054755,114.228461 102.094489,90.3790469 102.094489,90.3790469 C102.094489,90.2419688 102.04143,66.5160703 97.1367078,61.7101016 L97.1367078,61.7101016 Z M30.4820095,75.6877109 L23.5489169,75.6877109 L23.5489169,110.155836 L16.8425986,110.155836 L16.8425986,75.6877109 L9.90950594,75.6877109 L9.90950594,69.8311328 L30.4817672,69.8311328 L30.4820095,75.6877109 L30.4820095,75.6877109 Z M50.0866033,110.156078 L44.1410451,110.156078 L44.1410451,106.884367 C43.0335819,108.098211 41.8989834,109.015375 40.7047838,109.642641 C39.5168836,110.283227 38.3689596,110.589594 37.2479287,110.589594 C35.8664466,110.589594 34.8454774,110.156078 34.1385036,109.262648 C33.4511544,108.371641 33.0974252,107.054867 33.0974252,105.276969 L33.0974252,80.4033438 L39.0432257,80.4033438 L39.0432257,103.222492 C39.0432257,103.929438 39.1699382,104.436336 39.4105226,104.749727 C39.6707316,105.069898 40.0777625,105.223445 40.6316152,105.223445 C41.0655392,105.223445 41.6259335,105.013227 42.2931734,104.596422 C42.9671971,104.175984 43.5743515,103.648984 44.1412874,103.005492 L44.1412874,80.4038281 L50.0868456,80.4038281 L50.0866033,110.156078 L50.0866033,110.156078 Z M71.6665083,104.009359 C71.6665083,106.113484 71.1989074,107.727906 70.2654014,108.852141 C69.3379525,109.979039 67.9836057,110.532438 66.2219857,110.532438 C65.0541948,110.532438 64.019658,110.322945 63.112076,109.889188 C62.2049786,109.455914 61.3436722,108.788688 60.5700713,107.875156 L60.5700713,110.156078 L54.5581283,110.156078 L54.5581283,69.8311328 L60.5700713,69.8311328 L60.5700713,82.8145625 C61.3773492,81.9138672 62.2248456,81.2168516 63.1191021,80.7503984 C64.0261995,80.2769219 64.9410499,80.0432109 65.8612304,80.0432109 C67.7498052,80.0432109 69.1845891,80.6770156 70.1721235,81.9378437 C71.1729834,83.2083594 71.6669929,85.0659375 71.6669929,87.5006484 L71.6669929,104.009359 L71.6665083,104.009359 L71.6665083,104.009359 Z M92.2925558,95.9919844 L80.9148314,95.9919844 L80.9148314,101.598141 C80.9148314,103.16582 81.1088979,104.249609 81.4953349,104.859922 C81.8955819,105.463453 82.5628219,105.760859 83.5106223,105.760859 C84.4976722,105.760859 85.1852637,105.503656 85.5789691,104.990219 C85.966133,104.476539 86.1727981,103.349398 86.1727981,101.598141 L86.1727981,100.240922 L92.291829,100.240922 L92.291829,101.768641 C92.291829,104.820445 91.5506936,107.118078 90.0497672,108.668805 C88.5687078,110.203063 86.3394869,110.966438 83.3771259,110.966438 C80.7144656,110.966438 78.6124418,110.155836 77.08438,108.515016 C75.5558337,106.884609 74.7817482,104.636141 74.7817482,101.768398 L74.7817482,88.4078828 C74.7817482,85.8365781 75.6292447,83.7220391 77.3109121,82.1010781 C78.992095,80.4769688 81.1542043,79.6666094 83.8236485,79.6666094 C86.5459097,79.6666094 88.6413919,80.4200547 90.1025843,81.9242813 C91.5637767,83.424875 92.2915867,85.5861563 92.2915867,88.4078828 L92.2915867,95.9917422 L92.2925558,95.9917422 L92.2925558,95.9919844 Z M83.5709501,84.8724297 C82.6236342,84.8724297 81.9430689,85.1356875 81.5290119,85.6929609 C81.1154394,86.2126953 80.9153159,87.1133906 80.9153159,88.35775 L80.9153159,91.3625703 L86.1735249,91.3625703 L86.1735249,88.35775 C86.1735249,87.1136328 85.960076,86.2134219 85.546019,85.6929609 C85.145772,85.1356875 84.4719905,84.8724297 83.5709501,84.8724297 L83.5709501,84.8724297 Z M63.0585321,84.765625 C62.6316342,84.765625 62.2115202,84.8557188 61.7974632,85.0557656 C61.3838907,85.2495156 60.9768599,85.5529766 60.5700713,85.9632422 L60.5700713,104.499547 C61.0502708,104.979563 61.5244133,105.343086 61.9845036,105.550156 C62.4387791,105.759891 62.9124371,105.873719 63.4192874,105.873719 C64.1466128,105.873719 64.6808409,105.6635 65.0210024,105.236523 C65.3606793,104.819477 65.5409359,104.145711 65.5409359,103.188828 L65.5409359,87.8271172 C65.5409359,86.8230078 65.3337862,86.0593906 64.9139145,85.5394141 C64.4799905,85.0257344 63.8590261,84.765625 63.0585321,84.765625 L63.0585321,84.765625 Z" id="Shape" fill="#E42B28" sketch:type="MSShapeGroup"></path>
                <path d="M83.5442993,11.6000547 L83.5442993,44.3711719 L76.8447648,44.3711719 L76.8447648,40.7526484 C75.6234299,42.0832266 74.3359525,43.1074375 72.9942043,43.8008203 C71.6597245,44.4978359 70.3649786,44.8451328 69.110209,44.8451328 C67.5491971,44.8451328 66.3944893,44.3547031 65.6075629,43.3808672 C64.8266936,42.4036406 64.4329881,40.9430078 64.4329881,38.9883125 L64.4329881,11.6000547 L71.1189549,11.6000547 L71.1189549,36.723375 C71.1189549,37.5005547 71.2728029,38.0607344 71.5528789,38.4075469 C71.8264133,38.7548437 72.2867458,38.9311562 72.9142518,38.9311562 C73.4012352,38.9311562 74.0287411,38.6979297 74.7824751,38.2409219 C75.5296675,37.7807656 76.2238005,37.1932187 76.8442803,36.4731953 L76.8442803,11.6000547 L83.5442993,11.6000547 L83.5442993,11.6000547 Z M39.5571021,19.0974531 C39.5571021,16.5527891 40.4579002,14.5317344 42.2662803,13.0308984 C44.0681188,11.5266719 46.4967363,10.7732266 49.5329929,10.7732266 C52.3020143,10.7732266 54.577753,11.5666328 56.3526983,13.1544141 C58.114076,14.7385625 59.001791,16.7828672 59.001791,19.2810313 L59.001791,36.2099375 C59.001791,39.0113203 58.1344276,41.2060234 56.4062423,42.8037344 C54.6577055,44.3978125 52.2756057,45.1984844 49.226266,45.1984844 C46.303639,45.1984844 43.9549739,44.3711719 42.1931116,42.7308359 C40.4448171,41.0829922 39.5575867,38.8652812 39.5575867,36.0806094 L39.5571021,19.0974531 L39.5571021,19.0974531 Z M46.4499762,36.700125 C46.4499762,37.5971875 46.6968599,38.2874219 47.1705178,38.7843906 C47.6444181,39.2779688 48.3252257,39.5213672 49.2124561,39.5213672 C50.1202803,39.5213672 50.834038,39.2682813 51.3745653,38.7710703 C51.9087933,38.2639297 52.1757862,37.5739375 52.1757862,36.6998828 L52.1757862,18.8470313 C52.1757862,18.1303984 51.9017672,17.5532656 51.3546983,17.1095781 C50.8076295,16.6695234 50.0936295,16.4525234 49.2124561,16.4525234 C48.3918527,16.4525234 47.7313967,16.6695234 47.2175202,17.1095781 C46.7104276,17.5532656 46.4502185,18.1299141 46.4502185,18.8470313 L46.4502185,36.700125 L46.4499762,36.700125 L46.4499762,36.700125 Z M13.7268741,-0.0496484375 L21.3204228,-0.0496484375 L26.218361,17.7065703 L26.6922613,17.7065703 L31.3493729,-0.0496484375 L39.0165748,-0.0496484375 L30.242152,25.9409453 L30.242152,44.3709297 L22.7014204,44.3709297 L22.7014204,26.7714063 L13.7268741,-0.0496484375 Z" id="Path" fill="#000000" sketch:type="MSShapeGroup"></path>
            </g>
        </g>
    </g>
</svg>