<?xml version="1.0" encoding="UTF-8" standalone="no"?>
<svg width="222px" height="148px" viewBox="0 0 222 148" version="1.1" xmlns="http://www.w3.org/2000/svg" xmlns:xlink="http://www.w3.org/1999/xlink" xmlns:sketch="http://www.bohemiancoding.com/sketch/ns">
    <!-- Generator: Sketch 3.0.4 (8053) - http://www.bohemiancoding.com/sketch -->
    <title>Artboard 1</title>
    <desc>Created with Sketch.</desc>
    <defs></defs>
    <g id="Page-1" stroke="none" stroke-width="1" fill="none" fill-rule="evenodd" sketch:type="MSPage">
        <g id="Artboard-1" sketch:type="MSArtboardGroup" fill="#000000">
            <path d="M157.136708,73.7101016 C152.252337,68.9113984 111.081406,68.8474609 111.081406,68.8510938 C111.081406,68.8474609 69.9167743,68.9113984 65.0190784,73.7101016 C60.1211401,78.5160703 60.1078147,102.242453 60.1078147,102.379047 L60.1078147,102.422641 C60.1078147,102.558992 60.1213824,126.245172 65.0190784,131.051383 C69.9162898,135.846938 111.081406,135.950352 111.081406,135.950352 C111.081406,135.950352 152.252337,135.846938 157.136708,131.051141 C162.054755,126.228461 162.094489,102.379047 162.094489,102.379047 C162.094489,102.241969 162.04143,78.5160703 157.136708,73.7101016 L157.136708,73.7101016 Z M90.4820095,87.6877109 L83.5489169,87.6877109 L83.5489169,122.155836 L76.8425986,122.155836 L76.8425986,87.6877109 L69.9095059,87.6877109 L69.9095059,81.8311328 L90.4817672,81.8311328 L90.4820095,87.6877109 L90.4820095,87.6877109 Z M110.086603,122.156078 L104.141045,122.156078 L104.141045,118.884367 C103.033582,120.098211 101.898983,121.015375 100.704784,121.642641 C99.5168836,122.283227 98.3689596,122.589594 97.2479287,122.589594 C95.8664466,122.589594 94.8454774,122.156078 94.1385036,121.262648 C93.4511544,120.371641 93.0974252,119.054867 93.0974252,117.276969 L93.0974252,92.4033438 L99.0432257,92.4033438 L99.0432257,115.222492 C99.0432257,115.929438 99.1699382,116.436336 99.4105226,116.749727 C99.6707316,117.069898 100.077762,117.223445 100.631615,117.223445 C101.065539,117.223445 101.625933,117.013227 102.293173,116.596422 C102.967197,116.175984 103.574352,115.648984 104.141287,115.005492 L104.141287,92.4038281 L110.086846,92.4038281 L110.086603,122.156078 L110.086603,122.156078 Z M131.666508,116.009359 C131.666508,118.113484 131.198907,119.727906 130.265401,120.852141 C129.337952,121.979039 127.983606,122.532438 126.221986,122.532438 C125.054195,122.532438 124.019658,122.322945 123.112076,121.889188 C122.204979,121.455914 121.343672,120.788688 120.570071,119.875156 L120.570071,122.156078 L114.558128,122.156078 L114.558128,81.8311328 L120.570071,81.8311328 L120.570071,94.8145625 C121.377349,93.9138672 122.224846,93.2168516 123.119102,92.7503984 C124.0262,92.2769219 124.94105,92.0432109 125.86123,92.0432109 C127.749805,92.0432109 129.184589,92.6770156 130.172124,93.9378437 C131.172983,95.2083594 131.666993,97.0659375 131.666993,99.5006484 L131.666993,116.009359 L131.666508,116.009359 L131.666508,116.009359 Z M152.292556,107.991984 L140.914831,107.991984 L140.914831,113.598141 C140.914831,115.16582 141.108898,116.249609 141.495335,116.859922 C141.895582,117.463453 142.562822,117.760859 143.510622,117.760859 C144.497672,117.760859 145.185264,117.503656 145.578969,116.990219 C145.966133,116.476539 146.172798,115.349398 146.172798,113.598141 L146.172798,112.240922 L152.291829,112.240922 L152.291829,113.768641 C152.291829,116.820445 151.550694,119.118078 150.049767,120.668805 C148.568708,122.203063 146.339487,122.966438 143.377126,122.966438 C140.714466,122.966438 138.612442,122.155836 137.08438,120.515016 C135.555834,118.884609 134.781748,116.636141 134.781748,113.768398 L134.781748,100.407883 C134.781748,97.8365781 135.629245,95.7220391 137.310912,94.1010781 C138.992095,92.4769688 141.154204,91.6666094 143.823648,91.6666094 C146.54591,91.6666094 148.641392,92.4200547 150.102584,93.9242813 C151.563777,95.424875 152.291587,97.5861563 152.291587,100.407883 L152.291587,107.991742 L152.292556,107.991742 L152.292556,107.991984 Z M143.57095,96.8724297 C142.623634,96.8724297 141.943069,97.1356875 141.529012,97.6929609 C141.115439,98.2126953 140.915316,99.1133906 140.915316,100.35775 L140.915316,103.36257 L146.173525,103.36257 L146.173525,100.35775 C146.173525,99.1136328 145.960076,98.2134219 145.546019,97.6929609 C145.145772,97.1356875 144.47199,96.8724297 143.57095,96.8724297 L143.57095,96.8724297 Z M123.058532,96.765625 C122.631634,96.765625 122.21152,96.8557188 121.797463,97.0557656 C121.383891,97.2495156 120.97686,97.5529766 120.570071,97.9632422 L120.570071,116.499547 C121.050271,116.979563 121.524413,117.343086 121.984504,117.550156 C122.438779,117.759891 122.912437,117.873719 123.419287,117.873719 C124.146613,117.873719 124.680841,117.6635 125.021002,117.236523 C125.360679,116.819477 125.540936,116.145711 125.540936,115.188828 L125.540936,99.8271172 C125.540936,98.8230078 125.333786,98.0593906 124.913914,97.5394141 C124.47999,97.0257344 123.859026,96.765625 123.058532,96.765625 L123.058532,96.765625 Z M143.544299,23.6000547 L143.544299,56.3711719 L136.844765,56.3711719 L136.844765,52.7526484 C135.62343,54.0832266 134.335952,55.1074375 132.994204,55.8008203 C131.659724,56.4978359 130.364979,56.8451328 129.110209,56.8451328 C127.549197,56.8451328 126.394489,56.3547031 125.607563,55.3808672 C124.826694,54.4036406 124.432988,52.9430078 124.432988,50.9883125 L124.432988,23.6000547 L131.118955,23.6000547 L131.118955,48.723375 C131.118955,49.5005547 131.272803,50.0607344 131.552879,50.4075469 C131.826413,50.7548437 132.286746,50.9311562 132.914252,50.9311562 C133.401235,50.9311562 134.028741,50.6979297 134.782475,50.2409219 C135.529667,49.7807656 136.2238,49.1932187 136.84428,48.4731953 L136.84428,23.6000547 L143.544299,23.6000547 L143.544299,23.6000547 Z M99.5571021,31.0974531 C99.5571021,28.5527891 100.4579,26.5317344 102.26628,25.0308984 C104.068119,23.5266719 106.496736,22.7732266 109.532993,22.7732266 C112.302014,22.7732266 114.577753,23.5666328 116.352698,25.1544141 C118.114076,26.7385625 119.001791,28.7828672 119.001791,31.2810313 L119.001791,48.2099375 C119.001791,51.0113203 118.134428,53.2060234 116.406242,54.8037344 C114.657705,56.3978125 112.275606,57.1984844 109.226266,57.1984844 C106.303639,57.1984844 103.954974,56.3711719 102.193112,54.7308359 C100.444817,53.0829922 99.5575867,50.8652812 99.5575867,48.0806094 L99.5571021,31.0974531 L99.5571021,31.0974531 Z M106.449976,48.700125 C106.449976,49.5971875 106.69686,50.2874219 107.170518,50.7843906 C107.644418,51.2779688 108.325226,51.5213672 109.212456,51.5213672 C110.12028,51.5213672 110.834038,51.2682813 111.374565,50.7710703 C111.908793,50.2639297 112.175786,49.5739375 112.175786,48.6998828 L112.175786,30.8470313 C112.175786,30.1303984 111.901767,29.5532656 111.354698,29.1095781 C110.807629,28.6695234 110.093629,28.4525234 109.212456,28.4525234 C108.391853,28.4525234 107.731397,28.6695234 107.21752,29.1095781 C106.710428,29.5532656 106.450219,30.1299141 106.450219,30.8470313 L106.450219,48.700125 L106.449976,48.700125 L106.449976,48.700125 Z M73.7268741,11.9503516 L81.3204228,11.9503516 L86.218361,29.7065703 L86.6922613,29.7065703 L91.3493729,11.9503516 L99.0165748,11.9503516 L90.242152,37.9409453 L90.242152,56.3709297 L82.7014204,56.3709297 L82.7014204,38.7714063 L73.7268741,11.9503516 Z" id="Shape" sketch:type="MSShapeGroup"></path>
        </g>
    </g>
</svg>